<?xml version="1.0" encoding="UTF-8"?>
<svg id="Calque_2" data-name="Calque 2" xmlns="http://www.w3.org/2000/svg" viewBox="0 0 1350.4 326.35">
  <defs>
    <style>
      .cls-1 {
        fill: none;
        stroke-width: 3px;
      }

      .cls-1, .cls-2 {
        stroke: #fbfbfb;
        stroke-miterlimit: 10;
      }

      .cls-3 {
        fill: #1e1e1e;
      }

      .cls-2 {
        fill: #fbfbfb;
        stroke-width: .1px;
      }
    </style>
  </defs>
  <g id="Calque_1-2" data-name="Calque 1">
    <g>
      <rect class="cls-3" width="1350.4" height="326.35"/>
      <g>
        <path class="cls-1" d="m12.87,60.68s17.9,4.46,37.59,63.33c19.69,58.87,41.19,154.69,85.92,151.64,43.27-2.94,34.71-17.02,70.82-13.33,6.25.64,11.03,1.53,14.37,2.31,8.89,2.07,18,3.13,27.12,2.81,8.17-.29,17.45-1.51,25.47-4.84,19.56-8.12,51.34,4.87,51.34,4.87,0,0,28.12,14.21,38.71,10.15,0,0,31.49,1.55,51.08-65.2,19.6-66.75,46.23-143.29,52.05-147.88,0,0,20.51-35.82,35.52-.31,15,35.52,26.94,72.41,65.22,176.97,0,0,17.76,50.98,67.36,31.38,0,0,35.82-26.09,90.94.61,0,0,25.11,5.21,34.9-4.9,9.8-10.1,27.86-19.29,44.7-67.67,16.84-48.38,45.93-86.65,45.93-86.65,0,0,13.47-16.23,25.72.61,12.25,16.84,34.29,54.5,57.26,110.22,22.96,55.72,57.26,48.38,57.26,48.38,0,0,19.29.92,39.8-7.35,15.09-6.08,32.99-4.38,41.41-3.05,2.4.38,4.75.99,7.03,1.86,5.56,2.1,21.51,6.45,46.48-.34,31.54-8.57,71.03,4.9,71.03,4.9,0,0,50.83,12.2,81.75-48.11,0,0,32.91-66.54,58.74-66.23"/>
        <path class="cls-1" d="m1337.53,260.02c-22.75-7.26-59.72-132.15-93.91-127.41-32.43,4.5-50.1,80.63-84.84,120.21-5.67,6.46-11.58,11.66-19.52,14.97-7.41,3.09-16.17,5.8-21.11,3.97-12.13-4.48-21.99-3.55-26.54-2.37-2.93.76-5.97,1.04-8.98.73-12.14-1.25-39.25-9.22-61.12-53.19-22.79-45.83-31.28-56.99-44.91-71.14-14.44-15-29.12-2.88-29.12-2.88,0,0-23.31,16.94-43.98,63.81-12.25,27.78-29.42,46.95-41.2,56.99-4.21,3.59-13.13,6.03-19.59,7.43-10.22,2.23-20.87,1.15-30.65-2.58-48.98-18.7-80.2,4.04-80.2,4.04-49.6,19.6-67.36-31.38-67.36-31.38-38.27-104.56-48.71-142.13-65.22-176.97-12.61-26.63-30.82-8.16-35.52.31-5.46,9.85-35.81,83.45-54.14,147.94-16.68,58.67-48.99,65.14-48.99,65.14-10.59,4.06-38.71-10.15-38.71-10.15,0,0-31.78-13-51.34-4.87s-50.12,7.31-50.12,7.31c0,0-13.38-1.39-25.01-9.42,0,0-20.37-18-41.8-62.65,0,0-39.99-94.96-67.67-57.78s-57.56,96.89-57.56,96.89c0,0-20.94,47.22-73.49,31.61,0,0-28.11-8.63-42.07-5.75,0,0,32.15-34.75,39.29-55.6,7.14-20.84,37.12-63.1,53.68-63.1s34.83,26.27,53.96,61.67c0,0,20.7,43.29,45.66,58.58,4.71,2.89,13.09,4.53,18.54,3.63,21.59-3.56,26.54,4.27,38.43,4.34,27.13.14,42.45-18.43,52.93-35.29,20.62-23.79,51.83-137.16,84.38-115.02,0,0,20.02,16.04,37.5,56.19,15.27,35.05,22.27,59.21,50.02,82.8,8.75,7.44,19.89,11.38,31.37,11.07,11.79-.32,27.86-2.29,43.25-9.14,0,0,18.72-7.88,65.03,6.16,46.31,14.04,72.17-34.98,72.17-34.98,0,0,46.31-91.38,70.94-89.9,24.63,1.48,51.23,60.1,68.72,85.47,17.49,25.37,20.69,39.16,56.41,39.41,35.72.25,54.68-13.3,79.07-6.16,24.38,7.14,67.07,11.71,98.52-15.03,21.77-18.5,49.28-65.74,76.6-68.97,0,0,16.01-6.16,61.33,52.22,45.32,58.38,96.55,32.51,96.55,32.51,0,0,11.08-4.68,31.16-1.48"/>
        <path class="cls-1" d="m107.15,261.84c22.36-.52,76.79,16.95,97.61-2.01,0,0,35.4-35.69,49.97-67.22,14.57-31.53,40.16-37.48,40.16-37.48,0,0,15.17-9.22,53.24,54.14s50.61,57.36,65.74,59.42c15.12,2.06,52.35-5.88,52.35-5.88,0,0,17.55-7.44,49.67,4.46,32.12,11.9,41.86,16.53,66.59-6.46,24.73-22.99,37.22-100.18,75.89-176.17,0,0,13.28-24.17,33.1,1.74,0,0,12.83,16.82,44.45,101.15s33.73,78.44,63.25,89.61c0,0,13.91,3.58,50.6-13.71,0,0,21.77-8.98,44.75,2.78,22.98,11.76,54.72,9.85,70.04-7.11,15.32-16.96,64.57-125.58,64.57-125.58,0,0,22.71-45.14,50.61.27,27.91,45.42,31.46,73.6,50.07,100.68,18.6,27.09,22.71,38.03,51.44,38.03s50.29-17.66,68.64-9.24"/>
        <line class="cls-1" x1="12.87" y1="262.82" x2="1337.53" y2="262.82"/>
        <circle class="cls-2" cx="105.4" cy="143.53" r="6.83"/>
        <circle class="cls-2" cx="200.57" cy="131.47" r="6.83"/>
        <circle class="cls-2" cx="295.25" cy="154.83" r="6.83"/>
        <circle class="cls-2" cx="390.22" cy="119.8" r="6.83"/>
        <circle class="cls-2" cx="485.58" cy="48.54" r="6.83"/>
        <circle class="cls-2" cx="579.84" cy="48.54" r="6.83"/>
        <circle class="cls-2" cx="675.2" cy="72.88" r="6.83"/>
        <circle class="cls-2" cx="865.45" cy="107.63" r="6.83"/>
        <circle class="cls-2" cx="769.29" cy="143.29" r="6.83"/>
        <circle class="cls-2" cx="959.45" cy="136.46" r="6.83"/>
        <circle class="cls-2" cx="1053.76" cy="111.86" r="6.83"/>
        <circle class="cls-2" cx="1148.42" cy="178.66" r="6.83"/>
        <circle class="cls-2" cx="1244.02" cy="131.78" r="6.83"/>
        <g>
          <line class="cls-1" x1="106.28" y1="152.93" x2="106.28" y2="161.43"/>
          <line class="cls-1" x1="106.28" y1="164.15" x2="106.28" y2="172.65"/>
          <line class="cls-1" x1="106.28" y1="175.69" x2="106.28" y2="184.19"/>
          <line class="cls-1" x1="106.28" y1="186.98" x2="106.28" y2="195.48"/>
          <line class="cls-1" x1="106.28" y1="199.55" x2="106.28" y2="208.05"/>
          <line class="cls-1" x1="106.28" y1="210.77" x2="106.28" y2="219.27"/>
          <line class="cls-1" x1="106.28" y1="222.31" x2="106.28" y2="230.81"/>
          <line class="cls-1" x1="106.28" y1="233.6" x2="106.28" y2="242.1"/>
          <line class="cls-1" x1="106.28" y1="247.73" x2="106.28" y2="256.23"/>
        </g>
        <g>
          <line class="cls-1" x1="295.25" y1="165.53" x2="295.25" y2="174.03"/>
          <line class="cls-1" x1="295.25" y1="176.74" x2="295.25" y2="185.24"/>
          <line class="cls-1" x1="295.25" y1="188.28" x2="295.25" y2="196.78"/>
          <line class="cls-1" x1="295.25" y1="199.57" x2="295.25" y2="208.07"/>
          <line class="cls-1" x1="295.25" y1="212.15" x2="295.25" y2="220.65"/>
          <line class="cls-1" x1="295.25" y1="223.36" x2="295.25" y2="231.86"/>
          <line class="cls-1" x1="295.25" y1="234.9" x2="295.25" y2="243.4"/>
          <line class="cls-1" x1="295.25" y1="246.19" x2="295.25" y2="254.69"/>
        </g>
        <g>
          <line class="cls-1" x1="1149.9" y1="187.43" x2="1149.9" y2="195.93"/>
          <line class="cls-1" x1="1149.9" y1="198.65" x2="1149.9" y2="207.15"/>
          <line class="cls-1" x1="1149.9" y1="210.19" x2="1149.9" y2="218.69"/>
          <line class="cls-1" x1="1149.9" y1="221.48" x2="1149.9" y2="229.98"/>
          <line class="cls-1" x1="1149.9" y1="234.05" x2="1149.9" y2="242.55"/>
          <line class="cls-1" x1="1149.9" y1="245.27" x2="1149.9" y2="253.77"/>
        </g>
        <g>
          <line class="cls-1" x1="770.45" y1="153.69" x2="770.45" y2="162.19"/>
          <line class="cls-1" x1="770.45" y1="164.91" x2="770.45" y2="173.41"/>
          <line class="cls-1" x1="770.45" y1="176.45" x2="770.45" y2="184.95"/>
          <line class="cls-1" x1="770.45" y1="187.74" x2="770.45" y2="196.24"/>
          <line class="cls-1" x1="770.45" y1="200.31" x2="770.45" y2="208.81"/>
          <line class="cls-1" x1="770.45" y1="211.53" x2="770.45" y2="220.03"/>
          <line class="cls-1" x1="770.45" y1="223.07" x2="770.45" y2="231.57"/>
          <line class="cls-1" x1="770.45" y1="234.36" x2="770.45" y2="242.86"/>
          <line class="cls-1" x1="770.45" y1="246.44" x2="770.45" y2="254.94"/>
        </g>
        <g>
          <line class="cls-1" x1="1245.03" y1="142.17" x2="1245.03" y2="150.67"/>
          <line class="cls-1" x1="1245.03" y1="153.39" x2="1245.03" y2="161.89"/>
          <line class="cls-1" x1="1245.03" y1="164.93" x2="1245.03" y2="173.43"/>
          <line class="cls-1" x1="1245.03" y1="176.22" x2="1245.03" y2="184.72"/>
          <line class="cls-1" x1="1245.03" y1="188.79" x2="1245.03" y2="197.29"/>
          <line class="cls-1" x1="1245.03" y1="200.01" x2="1245.03" y2="208.51"/>
          <line class="cls-1" x1="1245.03" y1="211.55" x2="1245.03" y2="220.05"/>
          <line class="cls-1" x1="1245.03" y1="222.84" x2="1245.03" y2="231.34"/>
          <line class="cls-1" x1="1245.03" y1="243.42" x2="1245.03" y2="234.92"/>
          <line class="cls-1" x1="1245.03" y1="255.13" x2="1245.03" y2="246.63"/>
        </g>
        <g>
          <line class="cls-1" x1="865.45" y1="118.99" x2="865.45" y2="127.49"/>
          <line class="cls-1" x1="865.45" y1="130.21" x2="865.45" y2="138.71"/>
          <line class="cls-1" x1="865.45" y1="141.75" x2="865.45" y2="150.25"/>
          <line class="cls-1" x1="865.45" y1="153.04" x2="865.45" y2="161.54"/>
          <line class="cls-1" x1="865.45" y1="165.61" x2="865.45" y2="174.11"/>
          <line class="cls-1" x1="865.45" y1="176.83" x2="865.45" y2="185.33"/>
          <line class="cls-1" x1="865.45" y1="188.37" x2="865.45" y2="196.87"/>
          <line class="cls-1" x1="865.45" y1="199.66" x2="865.45" y2="208.16"/>
          <line class="cls-1" x1="865.45" y1="211.74" x2="865.45" y2="220.24"/>
          <line class="cls-1" x1="865.45" y1="224.34" x2="865.45" y2="232.84"/>
          <line class="cls-1" x1="865.45" y1="236.26" x2="865.45" y2="244.76"/>
          <line class="cls-1" x1="865.45" y1="247.92" x2="865.45" y2="256.42"/>
        </g>
        <g>
          <line class="cls-1" x1="200.57" y1="140.9" x2="200.57" y2="149.4"/>
          <line class="cls-1" x1="200.57" y1="152.12" x2="200.57" y2="160.62"/>
          <line class="cls-1" x1="200.57" y1="163.66" x2="200.57" y2="172.16"/>
          <line class="cls-1" x1="200.57" y1="174.95" x2="200.57" y2="183.45"/>
          <line class="cls-1" x1="200.57" y1="187.52" x2="200.57" y2="196.02"/>
          <line class="cls-1" x1="200.57" y1="198.74" x2="200.57" y2="207.24"/>
          <line class="cls-1" x1="200.57" y1="210.28" x2="200.57" y2="218.78"/>
          <line class="cls-1" x1="200.57" y1="221.57" x2="200.57" y2="230.07"/>
          <line class="cls-1" x1="200.57" y1="235.7" x2="200.57" y2="244.2"/>
          <line class="cls-1" x1="200.57" y1="247.73" x2="200.57" y2="256.23"/>
        </g>
        <g>
          <line class="cls-1" x1="390.22" y1="129.31" x2="390.22" y2="137.81"/>
          <line class="cls-1" x1="390.22" y1="140.53" x2="390.22" y2="149.03"/>
          <line class="cls-1" x1="390.22" y1="152.07" x2="390.22" y2="160.57"/>
          <line class="cls-1" x1="390.22" y1="163.36" x2="390.22" y2="171.86"/>
          <line class="cls-1" x1="390.22" y1="175.93" x2="390.22" y2="184.43"/>
          <line class="cls-1" x1="390.22" y1="187.15" x2="390.22" y2="195.65"/>
          <line class="cls-1" x1="390.22" y1="198.69" x2="390.22" y2="207.19"/>
          <line class="cls-1" x1="390.22" y1="209.98" x2="390.22" y2="218.48"/>
          <line class="cls-1" x1="390.22" y1="224.11" x2="390.22" y2="232.61"/>
          <line class="cls-1" x1="390.22" y1="236.15" x2="390.22" y2="244.65"/>
          <line class="cls-1" x1="390.22" y1="247.8" x2="390.22" y2="256.3"/>
        </g>
        <g>
          <line class="cls-1" x1="1055.37" y1="120.93" x2="1055.37" y2="129.43"/>
          <line class="cls-1" x1="1055.37" y1="132.15" x2="1055.37" y2="140.65"/>
          <line class="cls-1" x1="1055.37" y1="143.69" x2="1055.37" y2="152.19"/>
          <line class="cls-1" x1="1055.37" y1="154.98" x2="1055.37" y2="163.48"/>
          <line class="cls-1" x1="1055.37" y1="167.55" x2="1055.37" y2="176.05"/>
          <line class="cls-1" x1="1055.37" y1="178.77" x2="1055.37" y2="187.27"/>
          <line class="cls-1" x1="1055.37" y1="190.31" x2="1055.37" y2="198.81"/>
          <line class="cls-1" x1="1055.37" y1="201.6" x2="1055.37" y2="210.1"/>
          <line class="cls-1" x1="1055.37" y1="215.73" x2="1055.37" y2="224.23"/>
          <line class="cls-1" x1="1055.37" y1="227.76" x2="1055.37" y2="236.26"/>
          <line class="cls-1" x1="1055.37" y1="239.42" x2="1055.37" y2="247.92"/>
          <line class="cls-1" x1="1055.37" y1="250.69" x2="1055.37" y2="259.19"/>
        </g>
        <g>
          <g>
            <line class="cls-1" x1="675.2" y1="83.06" x2="675.2" y2="91.56"/>
            <line class="cls-1" x1="675.2" y1="94.27" x2="675.2" y2="102.77"/>
            <line class="cls-1" x1="675.2" y1="105.81" x2="675.2" y2="114.31"/>
            <line class="cls-1" x1="675.2" y1="117.1" x2="675.2" y2="125.6"/>
            <line class="cls-1" x1="675.2" y1="129.68" x2="675.2" y2="138.18"/>
            <line class="cls-1" x1="675.2" y1="140.89" x2="675.2" y2="149.39"/>
            <line class="cls-1" x1="675.2" y1="152.43" x2="675.2" y2="160.93"/>
            <line class="cls-1" x1="675.2" y1="163.72" x2="675.2" y2="172.22"/>
            <line class="cls-1" x1="675.2" y1="177.86" x2="675.2" y2="186.36"/>
            <line class="cls-1" x1="675.2" y1="189.89" x2="675.2" y2="198.39"/>
            <line class="cls-1" x1="675.2" y1="201.55" x2="675.2" y2="210.05"/>
            <line class="cls-1" x1="675.2" y1="212.82" x2="675.2" y2="221.32"/>
          </g>
          <g>
            <line class="cls-1" x1="675.63" y1="223.07" x2="675.63" y2="231.57"/>
            <line class="cls-1" x1="675.63" y1="234.29" x2="675.63" y2="242.79"/>
            <line class="cls-1" x1="675.63" y1="245.83" x2="675.63" y2="254.33"/>
          </g>
        </g>
        <g>
          <g>
            <line class="cls-1" x1="485.58" y1="58.25" x2="485.58" y2="66.75"/>
            <line class="cls-1" x1="485.58" y1="69.47" x2="485.58" y2="77.97"/>
            <line class="cls-1" x1="485.58" y1="81.01" x2="485.58" y2="89.51"/>
            <line class="cls-1" x1="485.58" y1="92.3" x2="485.58" y2="100.8"/>
            <line class="cls-1" x1="485.58" y1="104.87" x2="485.58" y2="113.37"/>
            <line class="cls-1" x1="485.58" y1="116.09" x2="485.58" y2="124.59"/>
            <line class="cls-1" x1="485.58" y1="127.63" x2="485.58" y2="136.13"/>
            <line class="cls-1" x1="485.58" y1="138.92" x2="485.58" y2="147.42"/>
            <line class="cls-1" x1="485.58" y1="153.06" x2="485.58" y2="161.56"/>
            <line class="cls-1" x1="485.58" y1="165.09" x2="485.58" y2="173.59"/>
            <line class="cls-1" x1="485.58" y1="176.74" x2="485.58" y2="185.24"/>
          </g>
          <g>
            <line class="cls-1" x1="485.58" y1="189.79" x2="485.58" y2="198.29"/>
            <line class="cls-1" x1="485.58" y1="201.01" x2="485.58" y2="209.51"/>
            <line class="cls-1" x1="485.58" y1="212.55" x2="485.58" y2="221.05"/>
            <line class="cls-1" x1="485.58" y1="223.83" x2="485.58" y2="232.33"/>
            <line class="cls-1" x1="485.58" y1="236.41" x2="485.58" y2="244.91"/>
            <line class="cls-1" x1="485.58" y1="247.63" x2="485.58" y2="256.13"/>
          </g>
        </g>
        <g>
          <g>
            <line class="cls-1" x1="579.84" y1="58.37" x2="579.84" y2="66.87"/>
            <line class="cls-1" x1="579.84" y1="69.59" x2="579.84" y2="78.09"/>
            <line class="cls-1" x1="579.84" y1="81.13" x2="579.84" y2="89.63"/>
            <line class="cls-1" x1="579.84" y1="92.42" x2="579.84" y2="100.92"/>
            <line class="cls-1" x1="579.84" y1="104.99" x2="579.84" y2="113.49"/>
            <line class="cls-1" x1="579.84" y1="116.21" x2="579.84" y2="124.71"/>
            <line class="cls-1" x1="579.84" y1="127.75" x2="579.84" y2="136.25"/>
            <line class="cls-1" x1="579.84" y1="139.04" x2="579.84" y2="147.54"/>
            <line class="cls-1" x1="579.84" y1="153.17" x2="579.84" y2="161.67"/>
            <line class="cls-1" x1="579.84" y1="165.2" x2="579.84" y2="173.7"/>
            <line class="cls-1" x1="579.84" y1="176.86" x2="579.84" y2="185.36"/>
          </g>
          <g>
            <line class="cls-1" x1="579.84" y1="189.91" x2="579.84" y2="198.41"/>
            <line class="cls-1" x1="579.84" y1="201.12" x2="579.84" y2="209.62"/>
            <line class="cls-1" x1="579.84" y1="212.66" x2="579.84" y2="221.16"/>
            <line class="cls-1" x1="579.84" y1="223.95" x2="579.84" y2="232.45"/>
            <line class="cls-1" x1="579.84" y1="236.52" x2="579.84" y2="245.02"/>
            <line class="cls-1" x1="579.84" y1="247.74" x2="579.84" y2="256.24"/>
          </g>
        </g>
      </g>
    </g>
  </g>
</svg>