<?xml version="1.0" encoding="UTF-8"?>
<svg id="Calque_2" data-name="Calque 2" xmlns="http://www.w3.org/2000/svg" viewBox="0 0 1350.4 326.35">
  <defs>
    <style>
      .cls-1 {
        stroke-width: 3px;
      }

      .cls-1, .cls-2 {
        fill: none;
      }

      .cls-1, .cls-2, .cls-3 {
        stroke: #fbfbfb;
        stroke-miterlimit: 10;
      }

      .cls-4 {
        fill: #1e1e1e;
      }

      .cls-2 {
        stroke-width: 2.88px;
      }

      .cls-3 {
        fill: #fbfbfb;
        stroke-width: .1px;
      }
    </style>
  </defs>
  <g id="Calque_9" data-name="Calque 9">
    <g>
      <rect class="cls-4" width="1350.4" height="326.35"/>
      <g>
        <path class="cls-1" d="m9.21,60.53s9.77-16.38,38.98,0c29.21,16.38,40.6,91.89,95.45,86.19,54.85-5.7,31.15-33.55,92.6-14.96,61.46,18.59,80.48,48.45,198.51-53.67,0,0,42.89-48.22,99.89-39.64,16.58,2.5,3.27.44,16.62,2.2,33.8,4.46,123.94,2.28,171.85,67.09,53.16,71.9,111.86,8.44,111.86,8.44,0,0,25.91-25.61,60.47-4.98,34.55,20.64,67.18,37.79,117.09,4.98,49.91-32.81,70.54,8.94,83.98,30.53,13.44,21.59,54.23,42.71,81.1,15.36,26.87-27.35,60.47-43.19,97.42-33.59,36.95,9.6,66.15,21.62,66.15,21.62-25.82-.3-58.74,66.23-58.74,66.23-30.92,60.32-81.75,48.11-81.75,48.11,0,0-39.5-13.47-71.03-4.9-24.99,6.79-40.94,2.44-46.49.33-2.27-.86-4.61-1.47-7.01-1.85-8.41-1.33-26.32-3.03-41.42,3.05-20.51,8.27-39.8,7.35-39.8,7.35,0,0-34.29,7.35-57.26-48.38-22.96-55.72-45.01-93.38-57.26-110.22-12.25-16.84-25.72-.61-25.72-.61,0,0-29.09,38.27-45.93,86.65-16.84,48.38-34.9,57.56-44.7,67.67-9.8,10.1-34.9,4.9-34.9,4.9-55.11-26.71-90.94-.61-90.94-.61-49.6,19.6-67.36-31.38-67.36-31.38-38.27-104.56-50.21-141.46-65.22-176.97-15-35.52-35.52.31-35.52.31-5.82,4.59-32.46,81.14-52.05,147.88-19.6,66.75-51.08,65.2-51.08,65.2-10.59,4.06-38.71-10.15-38.71-10.15,0,0-31.78-13-51.34-4.87-8.01,3.33-17.3,4.55-25.47,4.84-9.12.32-18.23-.73-27.12-2.81-3.34-.78-8.12-1.67-14.37-2.31-36.11-3.69-27.55,10.39-70.82,13.33-44.73,3.04-66.23-92.77-85.92-151.64C33.58,60.37,15.68,55.91,15.68,55.91"/>
        <path class="cls-1" d="m1341.19,257.43c-22.75-7.26-60.57-134.35-94.76-129.61-32.43,4.5-50.1,80.63-84.84,120.21-5.67,6.46-11.58,11.66-19.52,14.97-7.41,3.09-16.17,5.8-21.11,3.97-12.13-4.48-21.99-3.55-26.54-2.37-2.93.76-5.97,1.04-8.98.73-12.14-1.25-39.25-9.22-61.12-53.19-22.79-45.83-31.28-56.99-44.91-71.14-14.44-15-29.12-2.88-29.12-2.88,0,0-23.31,16.94-43.98,63.81-12.25,27.78-29.42,46.95-41.2,56.99-4.21,3.59-13.13,6.03-19.59,7.43-10.22,2.23-20.87,1.15-30.65-2.58-48.98-18.7-80.2,4.04-80.2,4.04-49.6,19.6-67.36-31.38-67.36-31.38-38.27-104.56-48.71-142.13-65.22-176.97-12.61-26.63-30.82-8.16-35.52.31-5.46,9.85-35.81,83.45-54.14,147.94-16.68,58.67-48.99,65.14-48.99,65.14-10.59,4.06-38.71-10.15-38.71-10.15,0,0-31.78-13-51.34-4.87-19.56,8.12-50.12,7.31-50.12,7.31,0,0-13.38-1.39-25.01-9.42,0,0-20.37-18-41.8-62.65,0,0-39.99-94.96-67.67-57.78s-57.56,96.89-57.56,96.89c0,0-20.94,47.22-73.49,31.61,0,0-28.11-8.63-42.07-5.75,0,0,32.15-34.75,39.29-55.6,7.14-20.84,37.12-63.1,53.68-63.1s34.83,26.27,53.96,61.67c0,0,20.7,43.29,45.66,58.58,4.71,2.89,13.09,4.53,18.54,3.63,21.59-3.56,26.54,4.27,38.43,4.34,27.13.14,42.45-18.43,52.93-35.29,20.62-23.79,51.83-137.16,84.38-115.02,0,0,20.02,16.04,37.5,56.19,15.27,35.05,22.27,59.21,50.02,82.8,8.75,7.44,19.89,11.38,31.37,11.07,11.79-.32,27.86-2.29,43.25-9.14,0,0,18.72-7.88,65.03,6.16,46.31,14.04,72.17-34.98,72.17-34.98,0,0,46.31-91.38,70.94-89.9,24.63,1.48,51.23,60.1,68.72,85.47,17.49,25.37,20.69,39.16,56.41,39.41,35.72.25,54.68-13.3,79.07-6.16,24.38,7.14,67.07,11.71,98.52-15.03,21.77-18.5,49.28-65.74,76.6-68.97,0,0,16.01-6.16,61.33,52.22,45.32,58.38,96.55,32.51,96.55,32.51,0,0,11.08-4.68,31.16-1.48"/>
        <path class="cls-1" d="m109.96,257.06c22.36-.52,76.79,16.95,97.61-2.01,0,0,35.4-35.69,49.97-67.22,14.57-31.53,40.16-37.48,40.16-37.48,0,0,15.17-9.22,53.24,54.14,38.07,63.36,50.61,57.36,65.74,59.42,15.12,2.06,52.35-5.88,52.35-5.88,0,0,17.55-7.44,49.67,4.46,32.12,11.9,41.86,16.53,66.59-6.46,24.73-22.99,37.22-100.18,75.89-176.17,0,0,13.28-24.17,33.1,1.74,0,0,12.83,16.82,44.45,101.15,31.62,84.33,33.73,78.44,63.25,89.61,0,0,13.91,3.58,50.6-13.71,0,0,21.77-8.98,44.75,2.78,22.98,11.76,54.72,9.85,70.04-7.11,15.32-16.96,64.57-125.58,64.57-125.58,0,0,22.71-45.14,50.61.27,27.91,45.42,31.46,73.6,50.07,100.68,18.6,27.09,22.71,38.03,51.44,38.03s50.29-17.66,68.64-9.24"/>
        <line class="cls-1" x1="15.68" y1="258.04" x2="1341.19" y2="257.43"/>
      </g>
      <g>
        <circle class="cls-3" cx="109.12" cy="141.27" r="6.83"/>
        <circle class="cls-3" cx="204.3" cy="129.21" r="6.83"/>
        <circle class="cls-3" cx="298.98" cy="152.56" r="6.83"/>
        <circle class="cls-3" cx="393.95" cy="117.53" r="6.83"/>
        <circle class="cls-3" cx="489.31" cy="46.27" r="6.83"/>
        <circle class="cls-3" cx="583.57" cy="46.27" r="6.83"/>
        <circle class="cls-3" cx="678.93" cy="70.62" r="6.83"/>
        <circle class="cls-3" cx="869.18" cy="105.37" r="6.83"/>
        <circle class="cls-3" cx="773.01" cy="141.03" r="6.83"/>
        <circle class="cls-3" cx="963.18" cy="134.2" r="6.83"/>
        <circle class="cls-3" cx="1057.49" cy="109.6" r="6.83"/>
        <circle class="cls-3" cx="1152.14" cy="176.4" r="6.83"/>
        <circle class="cls-3" cx="1247.75" cy="129.51" r="6.83"/>
        <g>
          <line class="cls-1" x1="110" y1="150.67" x2="110" y2="159.17"/>
          <line class="cls-1" x1="110" y1="161.89" x2="110" y2="170.39"/>
          <line class="cls-1" x1="110" y1="173.43" x2="110" y2="181.93"/>
          <line class="cls-1" x1="110" y1="184.71" x2="110" y2="193.21"/>
          <line class="cls-1" x1="110" y1="197.29" x2="110" y2="205.79"/>
          <line class="cls-1" x1="110" y1="208.51" x2="110" y2="217.01"/>
          <line class="cls-1" x1="110" y1="220.05" x2="110" y2="228.55"/>
          <line class="cls-1" x1="110" y1="231.33" x2="110" y2="239.83"/>
          <line class="cls-1" x1="110" y1="245.47" x2="110" y2="253.97"/>
        </g>
        <g>
          <line class="cls-1" x1="298.98" y1="163.26" x2="298.98" y2="171.76"/>
          <line class="cls-1" x1="298.98" y1="174.48" x2="298.98" y2="182.98"/>
          <line class="cls-1" x1="298.98" y1="186.02" x2="298.98" y2="194.52"/>
          <line class="cls-1" x1="298.98" y1="197.31" x2="298.98" y2="205.81"/>
          <line class="cls-1" x1="298.98" y1="209.88" x2="298.98" y2="218.38"/>
          <line class="cls-1" x1="298.98" y1="221.1" x2="298.98" y2="229.6"/>
          <line class="cls-1" x1="298.98" y1="232.64" x2="298.98" y2="241.14"/>
          <line class="cls-1" x1="298.98" y1="243.93" x2="298.98" y2="252.43"/>
        </g>
        <g>
          <line class="cls-1" x1="1153.63" y1="185.17" x2="1153.63" y2="193.67"/>
          <line class="cls-1" x1="1153.63" y1="196.38" x2="1153.63" y2="204.88"/>
          <line class="cls-1" x1="1153.63" y1="207.92" x2="1153.63" y2="216.42"/>
          <line class="cls-1" x1="1153.63" y1="219.21" x2="1153.63" y2="227.71"/>
          <line class="cls-1" x1="1153.63" y1="231.79" x2="1153.63" y2="240.29"/>
          <line class="cls-1" x1="1153.63" y1="243" x2="1153.63" y2="251.5"/>
        </g>
        <g>
          <line class="cls-1" x1="774.18" y1="151.43" x2="774.18" y2="159.93"/>
          <line class="cls-1" x1="774.18" y1="162.65" x2="774.18" y2="171.15"/>
          <line class="cls-1" x1="774.18" y1="174.19" x2="774.18" y2="182.69"/>
          <line class="cls-1" x1="774.18" y1="185.47" x2="774.18" y2="193.97"/>
          <line class="cls-1" x1="774.18" y1="198.05" x2="774.18" y2="206.55"/>
          <line class="cls-1" x1="774.18" y1="209.26" x2="774.18" y2="217.76"/>
          <line class="cls-1" x1="774.18" y1="220.8" x2="774.18" y2="229.3"/>
          <line class="cls-1" x1="774.18" y1="232.09" x2="774.18" y2="240.59"/>
          <line class="cls-1" x1="774.18" y1="244.18" x2="774.18" y2="252.68"/>
        </g>
        <g>
          <line class="cls-1" x1="1248.76" y1="139.91" x2="1248.76" y2="148.41"/>
          <line class="cls-1" x1="1248.76" y1="151.13" x2="1248.76" y2="159.63"/>
          <line class="cls-1" x1="1248.76" y1="162.67" x2="1248.76" y2="171.17"/>
          <line class="cls-1" x1="1248.76" y1="173.95" x2="1248.76" y2="182.45"/>
          <line class="cls-1" x1="1248.76" y1="186.53" x2="1248.76" y2="195.03"/>
          <line class="cls-1" x1="1248.76" y1="197.74" x2="1248.76" y2="206.24"/>
          <line class="cls-1" x1="1248.76" y1="209.28" x2="1248.76" y2="217.78"/>
          <line class="cls-1" x1="1248.76" y1="220.57" x2="1248.76" y2="229.07"/>
          <line class="cls-1" x1="1248.76" y1="241.16" x2="1248.76" y2="232.66"/>
          <line class="cls-1" x1="1248.76" y1="252.86" x2="1248.76" y2="244.36"/>
        </g>
        <g>
          <line class="cls-1" x1="869.18" y1="116.73" x2="869.18" y2="125.23"/>
          <line class="cls-1" x1="869.18" y1="127.94" x2="869.18" y2="136.44"/>
          <line class="cls-1" x1="869.18" y1="139.48" x2="869.18" y2="147.98"/>
          <line class="cls-1" x1="869.18" y1="150.77" x2="869.18" y2="159.27"/>
          <line class="cls-1" x1="869.18" y1="163.35" x2="869.18" y2="171.85"/>
          <line class="cls-1" x1="869.18" y1="174.56" x2="869.18" y2="183.06"/>
          <line class="cls-1" x1="869.18" y1="186.1" x2="869.18" y2="194.6"/>
          <line class="cls-1" x1="869.18" y1="197.39" x2="869.18" y2="205.89"/>
          <line class="cls-1" x1="869.18" y1="209.48" x2="869.18" y2="217.98"/>
          <line class="cls-1" x1="869.18" y1="222.08" x2="869.18" y2="230.58"/>
          <line class="cls-1" x1="869.18" y1="234" x2="869.18" y2="242.5"/>
          <line class="cls-1" x1="869.18" y1="245.66" x2="869.18" y2="254.16"/>
        </g>
        <g>
          <line class="cls-1" x1="204.3" y1="138.64" x2="204.3" y2="147.14"/>
          <line class="cls-1" x1="204.3" y1="149.85" x2="204.3" y2="158.35"/>
          <line class="cls-1" x1="204.3" y1="161.39" x2="204.3" y2="169.89"/>
          <line class="cls-1" x1="204.3" y1="172.68" x2="204.3" y2="181.18"/>
          <line class="cls-1" x1="204.3" y1="185.26" x2="204.3" y2="193.76"/>
          <line class="cls-1" x1="204.3" y1="196.47" x2="204.3" y2="204.97"/>
          <line class="cls-1" x1="204.3" y1="208.01" x2="204.3" y2="216.51"/>
          <line class="cls-1" x1="204.3" y1="219.3" x2="204.3" y2="227.8"/>
          <line class="cls-1" x1="204.3" y1="233.44" x2="204.3" y2="241.94"/>
          <line class="cls-1" x1="204.3" y1="245.47" x2="204.3" y2="253.97"/>
        </g>
        <g>
          <line class="cls-1" x1="393.95" y1="127.05" x2="393.95" y2="135.55"/>
          <line class="cls-1" x1="393.95" y1="138.26" x2="393.95" y2="146.76"/>
          <line class="cls-1" x1="393.95" y1="149.8" x2="393.95" y2="158.3"/>
          <line class="cls-1" x1="393.95" y1="161.09" x2="393.95" y2="169.59"/>
          <line class="cls-1" x1="393.95" y1="173.67" x2="393.95" y2="182.17"/>
          <line class="cls-1" x1="393.95" y1="184.88" x2="393.95" y2="193.38"/>
          <line class="cls-1" x1="393.95" y1="196.42" x2="393.95" y2="204.92"/>
          <line class="cls-1" x1="393.95" y1="207.71" x2="393.95" y2="216.21"/>
          <line class="cls-1" x1="393.95" y1="221.85" x2="393.95" y2="230.35"/>
          <line class="cls-1" x1="393.95" y1="233.88" x2="393.95" y2="242.38"/>
          <line class="cls-1" x1="393.95" y1="245.54" x2="393.95" y2="254.04"/>
        </g>
        <g>
          <line class="cls-1" x1="1059.09" y1="118.67" x2="1059.09" y2="127.17"/>
          <line class="cls-1" x1="1059.09" y1="129.88" x2="1059.09" y2="138.38"/>
          <line class="cls-1" x1="1059.09" y1="141.42" x2="1059.09" y2="149.92"/>
          <line class="cls-1" x1="1059.09" y1="152.71" x2="1059.09" y2="161.21"/>
          <line class="cls-1" x1="1059.09" y1="165.29" x2="1059.09" y2="173.79"/>
          <line class="cls-1" x1="1059.09" y1="176.5" x2="1059.09" y2="185"/>
          <line class="cls-1" x1="1059.09" y1="188.04" x2="1059.09" y2="196.54"/>
          <line class="cls-1" x1="1059.09" y1="199.33" x2="1059.09" y2="207.83"/>
          <line class="cls-1" x1="1059.09" y1="213.47" x2="1059.09" y2="221.97"/>
          <line class="cls-1" x1="1059.09" y1="225.5" x2="1059.09" y2="234"/>
          <line class="cls-1" x1="1059.09" y1="237.16" x2="1059.09" y2="245.66"/>
          <line class="cls-1" x1="1059.09" y1="248.43" x2="1059.09" y2="256.93"/>
        </g>
        <g>
          <line class="cls-2" x1="963.18" y1="129.88" x2="963.18" y2="137.69"/>
          <line class="cls-2" x1="963.18" y1="140.19" x2="963.18" y2="148"/>
          <line class="cls-2" x1="963.18" y1="150.79" x2="963.18" y2="158.6"/>
          <line class="cls-2" x1="963.18" y1="161.17" x2="963.18" y2="168.98"/>
          <line class="cls-2" x1="963.18" y1="172.72" x2="963.18" y2="180.53"/>
          <line class="cls-2" x1="963.18" y1="183.03" x2="963.18" y2="190.84"/>
          <line class="cls-2" x1="963.18" y1="193.63" x2="963.18" y2="201.44"/>
          <line class="cls-2" x1="963.18" y1="204" x2="963.18" y2="211.81"/>
          <line class="cls-2" x1="963.18" y1="216.99" x2="963.18" y2="224.8"/>
          <line class="cls-2" x1="963.18" y1="228.05" x2="963.18" y2="235.86"/>
          <line class="cls-2" x1="963.18" y1="238.76" x2="963.18" y2="246.57"/>
          <line class="cls-2" x1="963.18" y1="249.12" x2="963.18" y2="256.93"/>
        </g>
        <g>
          <g>
            <line class="cls-1" x1="678.93" y1="80.79" x2="678.93" y2="89.29"/>
            <line class="cls-1" x1="678.93" y1="92.01" x2="678.93" y2="100.51"/>
            <line class="cls-1" x1="678.93" y1="103.55" x2="678.93" y2="112.05"/>
            <line class="cls-1" x1="678.93" y1="114.84" x2="678.93" y2="123.34"/>
            <line class="cls-1" x1="678.93" y1="127.41" x2="678.93" y2="135.91"/>
            <line class="cls-1" x1="678.93" y1="138.63" x2="678.93" y2="147.13"/>
            <line class="cls-1" x1="678.93" y1="150.17" x2="678.93" y2="158.67"/>
            <line class="cls-1" x1="678.93" y1="161.46" x2="678.93" y2="169.96"/>
            <line class="cls-1" x1="678.93" y1="175.59" x2="678.93" y2="184.09"/>
            <line class="cls-1" x1="678.93" y1="187.63" x2="678.93" y2="196.13"/>
            <line class="cls-1" x1="678.93" y1="199.28" x2="678.93" y2="207.78"/>
            <line class="cls-1" x1="678.93" y1="210.55" x2="678.93" y2="219.05"/>
          </g>
          <g>
            <line class="cls-1" x1="679.36" y1="220.8" x2="679.36" y2="229.3"/>
            <line class="cls-1" x1="679.36" y1="232.02" x2="679.36" y2="240.52"/>
            <line class="cls-1" x1="679.36" y1="243.56" x2="679.36" y2="252.06"/>
          </g>
        </g>
        <g>
          <g>
            <line class="cls-1" x1="489.31" y1="55.99" x2="489.31" y2="64.49"/>
            <line class="cls-1" x1="489.31" y1="67.21" x2="489.31" y2="75.71"/>
            <line class="cls-1" x1="489.31" y1="78.75" x2="489.31" y2="87.25"/>
            <line class="cls-1" x1="489.31" y1="90.04" x2="489.31" y2="98.54"/>
            <line class="cls-1" x1="489.31" y1="102.61" x2="489.31" y2="111.11"/>
            <line class="cls-1" x1="489.31" y1="113.83" x2="489.31" y2="122.33"/>
            <line class="cls-1" x1="489.31" y1="125.37" x2="489.31" y2="133.87"/>
            <line class="cls-1" x1="489.31" y1="136.66" x2="489.31" y2="145.16"/>
            <line class="cls-1" x1="489.31" y1="150.79" x2="489.31" y2="159.29"/>
            <line class="cls-1" x1="489.31" y1="162.82" x2="489.31" y2="171.32"/>
            <line class="cls-1" x1="489.31" y1="174.48" x2="489.31" y2="182.98"/>
          </g>
          <g>
            <line class="cls-1" x1="489.31" y1="187.52" x2="489.31" y2="196.02"/>
            <line class="cls-1" x1="489.31" y1="198.74" x2="489.31" y2="207.24"/>
            <line class="cls-1" x1="489.31" y1="210.28" x2="489.31" y2="218.78"/>
            <line class="cls-1" x1="489.31" y1="221.57" x2="489.31" y2="230.07"/>
            <line class="cls-1" x1="489.31" y1="234.14" x2="489.31" y2="242.64"/>
            <line class="cls-1" x1="489.31" y1="245.36" x2="489.31" y2="253.86"/>
          </g>
        </g>
        <g>
          <g>
            <line class="cls-1" x1="583.57" y1="56.11" x2="583.57" y2="64.61"/>
            <line class="cls-1" x1="583.57" y1="67.32" x2="583.57" y2="75.82"/>
            <line class="cls-1" x1="583.57" y1="78.86" x2="583.57" y2="87.36"/>
            <line class="cls-1" x1="583.57" y1="90.15" x2="583.57" y2="98.65"/>
            <line class="cls-1" x1="583.57" y1="102.73" x2="583.57" y2="111.23"/>
            <line class="cls-1" x1="583.57" y1="113.94" x2="583.57" y2="122.44"/>
            <line class="cls-1" x1="583.57" y1="125.48" x2="583.57" y2="133.98"/>
            <line class="cls-1" x1="583.57" y1="136.77" x2="583.57" y2="145.27"/>
            <line class="cls-1" x1="583.57" y1="150.91" x2="583.57" y2="159.41"/>
            <line class="cls-1" x1="583.57" y1="162.94" x2="583.57" y2="171.44"/>
            <line class="cls-1" x1="583.57" y1="174.6" x2="583.57" y2="183.1"/>
          </g>
          <g>
            <line class="cls-1" x1="583.57" y1="187.64" x2="583.57" y2="196.14"/>
            <line class="cls-1" x1="583.57" y1="198.86" x2="583.57" y2="207.36"/>
            <line class="cls-1" x1="583.57" y1="210.4" x2="583.57" y2="218.9"/>
            <line class="cls-1" x1="583.57" y1="221.69" x2="583.57" y2="230.19"/>
            <line class="cls-1" x1="583.57" y1="234.26" x2="583.57" y2="242.76"/>
            <line class="cls-1" x1="583.57" y1="245.48" x2="583.57" y2="253.98"/>
          </g>
        </g>
      </g>
    </g>
  </g>
</svg>