<?xml version="1.0" encoding="UTF-8"?>
<svg id="Calque_2" data-name="Calque 2" xmlns="http://www.w3.org/2000/svg" viewBox="0 0 934.7 311.06">
  <defs>
    <style>
      .cls-1 {
        fill: #1e1e1e;
      }

      .cls-2 {
        fill: none;
        stroke: #fbfbfb;
        stroke-miterlimit: 10;
        stroke-width: 4px;
      }
    </style>
  </defs>
  <g id="Calque_2-2" data-name="Calque 2">
    <g>
      <rect class="cls-1" width="934.7" height="311.06"/>
      <path class="cls-2" d="m12.6,221.7h326.32c4.67.04,8.78,1.13,9.88,1.59,4.48,1.88,17.86,11.7,34.65,12.08,31.28.71,45.35-113.27,75.87-192.29,0,0,11.13-18.08,21.43,2.41,14.81,29.48,36.7,144.23,48.09,167.54,0,0,15.53,34.85,40.95,18.56,3.94-2.52,8.08-4.71,12.49-6.25,6.39-2.24,14.95-3.75,22.26-3.53,1.41.04,3.07.05,4.31.05l313.83-.12"/>
    </g>
  </g>
</svg>