<?xml version="1.0" encoding="UTF-8"?>
<svg id="Calque_2" data-name="Calque 2" xmlns="http://www.w3.org/2000/svg" viewBox="0 0 1217 354.65">
  <defs>
    <style>
      .cls-1 {
        fill: #1e1e1e;
      }

      .cls-2 {
        fill: none;
        stroke: #fbfbfb;
        stroke-miterlimit: 10;
        stroke-width: 4px;
      }
    </style>
  </defs>
  <g id="Calque_5" data-name="Calque 5">
    <g>
      <rect class="cls-1" width="1217" height="354.65"/>
      <path class="cls-2" d="m8.64,272.92c31.41-16.77,61.07-19.64,87.89,0,25.95,19.01,53.71,16.97,82.77,0,31.22-24.3,60.82-28.03,87.89,0,33.6,31,60.2,25.89,82.77,0,31.81-42.78,61.66-45.96,89.08,0,35.77,70.66,63.49,70.28,83.29,0l61.44-213.32s23.04-63.14,48.64,0c25.6,63.14,40.1,173.22,61.44,213.32,20.36,75.25,49.81,65.83,85.33,0,28.27-46.26,57.96-42.48,88.74,0,22.24,30.49,48.63,30.93,79.35,0,28.44-25.38,59.1-22.41,91.3,0,27.09,17.93,53.84,18.45,80.21,0,30.05-18.09,59.92-18.32,89.59,0"/>
    </g>
  </g>
</svg>