<?xml version="1.0" encoding="UTF-8"?>
<svg id="Calque_2" data-name="Calque 2" xmlns="http://www.w3.org/2000/svg" viewBox="0 0 1350.4 326.35">
  <defs>
    <style>
      .cls-1 {
        stroke-linecap: round;
      }

      .cls-1, .cls-2 {
        fill: none;
        stroke: #fbfbfb;
        stroke-miterlimit: 10;
        stroke-width: 3px;
      }

      .cls-3 {
        fill: #1e1e1e;
      }
    </style>
  </defs>
  <g id="Calque_6" data-name="Calque 6">
    <g>
      <rect class="cls-3" width="1350.4" height="326.35"/>
      <g>
        <path class="cls-1" d="m9.21,60.53s9.77-16.38,38.98,0c29.21,16.38,40.6,91.89,95.45,86.19,54.85-5.7,31.15-33.55,92.6-14.96,61.46,18.59,80.48,48.45,198.51-53.67,0,0,42.89-48.22,99.89-39.64,16.58,2.5,3.27.44,16.62,2.2,33.8,4.46,123.94,2.28,171.85,67.09,53.16,71.9,111.86,8.44,111.86,8.44,0,0,25.91-25.61,60.47-4.98,34.55,20.64,67.18,37.79,117.09,4.98,49.91-32.81,70.54,8.94,83.98,30.53,13.44,21.59,54.23,42.71,81.1,15.36,26.87-27.35,60.47-43.19,97.42-33.59,36.95,9.6,66.15,21.62,66.15,21.62"/>
        <line class="cls-2" x1="15.68" y1="258.04" x2="1341.19" y2="257.43"/>
      </g>
    </g>
  </g>
</svg>