<?xml version="1.0" encoding="UTF-8"?>
<svg id="Calque_2" data-name="Calque 2" xmlns="http://www.w3.org/2000/svg" viewBox="0 0 1350.4 326.35">
  <defs>
    <style>
      .cls-1 {
        stroke-linecap: round;
      }

      .cls-1, .cls-2 {
        stroke-width: 3px;
      }

      .cls-1, .cls-2, .cls-3 {
        fill: none;
      }

      .cls-1, .cls-2, .cls-3, .cls-4 {
        stroke: #fbfbfb;
        stroke-miterlimit: 10;
      }

      .cls-5 {
        fill: #1e1e1e;
      }

      .cls-3 {
        stroke-width: 2.88px;
      }

      .cls-4 {
        fill: #fbfbfb;
        stroke-width: .1px;
      }
    </style>
  </defs>
  <g id="Calque_8" data-name="Calque 8">
    <g>
      <g>
        <rect class="cls-5" width="1350.4" height="326.35"/>
        <g>
          <path class="cls-1" d="m9.21,60.53s9.77-16.38,38.98,0c29.21,16.38,40.6,91.89,95.45,86.19,54.85-5.7,31.15-33.55,92.6-14.96,61.46,18.59,80.48,48.45,198.51-53.67,0,0,42.89-48.22,99.89-39.64,16.58,2.5,3.27.44,16.62,2.2,33.8,4.46,123.94,2.28,171.85,67.09,53.16,71.9,111.86,8.44,111.86,8.44,0,0,25.91-25.61,60.47-4.98,34.55,20.64,67.18,37.79,117.09,4.98,49.91-32.81,70.54,8.94,83.98,30.53,13.44,21.59,54.23,42.71,81.1,15.36,26.87-27.35,60.47-43.19,97.42-33.59,36.95,9.6,66.15,21.62,66.15,21.62"/>
          <line class="cls-2" x1="15.68" y1="258.04" x2="1341.19" y2="257.43"/>
        </g>
      </g>
      <g>
        <circle class="cls-4" cx="107.03" cy="139.53" r="6.83"/>
        <circle class="cls-4" cx="202.21" cy="127.47" r="6.83"/>
        <circle class="cls-4" cx="296.89" cy="150.82" r="6.83"/>
        <circle class="cls-4" cx="391.85" cy="115.79" r="6.83"/>
        <circle class="cls-4" cx="487.22" cy="44.53" r="6.83"/>
        <circle class="cls-4" cx="581.48" cy="44.53" r="6.83"/>
        <circle class="cls-4" cx="676.84" cy="68.88" r="6.83"/>
        <circle class="cls-4" cx="867.09" cy="103.62" r="6.83"/>
        <circle class="cls-4" cx="770.92" cy="139.29" r="6.83"/>
        <circle class="cls-4" cx="961.09" cy="132.46" r="6.83"/>
        <circle class="cls-4" cx="1055.4" cy="107.86" r="6.83"/>
        <circle class="cls-4" cx="1150.05" cy="174.66" r="6.83"/>
        <circle class="cls-4" cx="1245.65" cy="127.77" r="6.83"/>
        <g>
          <line class="cls-2" x1="107.91" y1="148.93" x2="107.91" y2="157.43"/>
          <line class="cls-2" x1="107.91" y1="160.14" x2="107.91" y2="168.64"/>
          <line class="cls-2" x1="107.91" y1="171.68" x2="107.91" y2="180.19"/>
          <line class="cls-2" x1="107.91" y1="182.97" x2="107.91" y2="191.47"/>
          <line class="cls-2" x1="107.91" y1="195.55" x2="107.91" y2="204.05"/>
          <line class="cls-2" x1="107.91" y1="206.76" x2="107.91" y2="215.26"/>
          <line class="cls-2" x1="107.91" y1="218.3" x2="107.91" y2="226.8"/>
          <line class="cls-2" x1="107.91" y1="229.59" x2="107.91" y2="238.09"/>
          <line class="cls-2" x1="107.91" y1="243.73" x2="107.91" y2="252.23"/>
        </g>
        <g>
          <line class="cls-2" x1="296.89" y1="161.52" x2="296.89" y2="170.02"/>
          <line class="cls-2" x1="296.89" y1="172.74" x2="296.89" y2="181.24"/>
          <line class="cls-2" x1="296.89" y1="184.28" x2="296.89" y2="192.78"/>
          <line class="cls-2" x1="296.89" y1="195.57" x2="296.89" y2="204.07"/>
          <line class="cls-2" x1="296.89" y1="208.14" x2="296.89" y2="216.64"/>
          <line class="cls-2" x1="296.89" y1="219.36" x2="296.89" y2="227.86"/>
          <line class="cls-2" x1="296.89" y1="230.9" x2="296.89" y2="239.4"/>
          <line class="cls-2" x1="296.89" y1="242.19" x2="296.89" y2="250.69"/>
        </g>
        <g>
          <line class="cls-2" x1="1151.54" y1="183.43" x2="1151.54" y2="191.93"/>
          <line class="cls-2" x1="1151.54" y1="194.64" x2="1151.54" y2="203.14"/>
          <line class="cls-2" x1="1151.54" y1="206.18" x2="1151.54" y2="214.68"/>
          <line class="cls-2" x1="1151.54" y1="217.47" x2="1151.54" y2="225.97"/>
          <line class="cls-2" x1="1151.54" y1="230.05" x2="1151.54" y2="238.55"/>
          <line class="cls-2" x1="1151.54" y1="241.26" x2="1151.54" y2="249.76"/>
        </g>
        <g>
          <line class="cls-2" x1="772.09" y1="149.69" x2="772.09" y2="158.19"/>
          <line class="cls-2" x1="772.09" y1="160.9" x2="772.09" y2="169.4"/>
          <line class="cls-2" x1="772.09" y1="172.44" x2="772.09" y2="180.94"/>
          <line class="cls-2" x1="772.09" y1="183.73" x2="772.09" y2="192.23"/>
          <line class="cls-2" x1="772.09" y1="196.31" x2="772.09" y2="204.81"/>
          <line class="cls-2" x1="772.09" y1="207.52" x2="772.09" y2="216.02"/>
          <line class="cls-2" x1="772.09" y1="219.06" x2="772.09" y2="227.56"/>
          <line class="cls-2" x1="772.09" y1="230.35" x2="772.09" y2="238.85"/>
          <line class="cls-2" x1="772.09" y1="242.44" x2="772.09" y2="250.94"/>
        </g>
        <g>
          <line class="cls-2" x1="1246.67" y1="138.17" x2="1246.67" y2="146.67"/>
          <line class="cls-2" x1="1246.67" y1="149.38" x2="1246.67" y2="157.88"/>
          <line class="cls-2" x1="1246.67" y1="160.92" x2="1246.67" y2="169.42"/>
          <line class="cls-2" x1="1246.67" y1="172.21" x2="1246.67" y2="180.71"/>
          <line class="cls-2" x1="1246.67" y1="184.79" x2="1246.67" y2="193.29"/>
          <line class="cls-2" x1="1246.67" y1="196" x2="1246.67" y2="204.5"/>
          <line class="cls-2" x1="1246.67" y1="207.54" x2="1246.67" y2="216.04"/>
          <line class="cls-2" x1="1246.67" y1="218.83" x2="1246.67" y2="227.33"/>
          <line class="cls-2" x1="1246.67" y1="239.42" x2="1246.67" y2="230.92"/>
          <line class="cls-2" x1="1246.67" y1="251.12" x2="1246.67" y2="242.62"/>
        </g>
        <g>
          <line class="cls-2" x1="867.09" y1="114.98" x2="867.09" y2="123.49"/>
          <line class="cls-2" x1="867.09" y1="126.2" x2="867.09" y2="134.7"/>
          <line class="cls-2" x1="867.09" y1="137.74" x2="867.09" y2="146.24"/>
          <line class="cls-2" x1="867.09" y1="149.03" x2="867.09" y2="157.53"/>
          <line class="cls-2" x1="867.09" y1="161.6" x2="867.09" y2="170.1"/>
          <line class="cls-2" x1="867.09" y1="172.82" x2="867.09" y2="181.32"/>
          <line class="cls-2" x1="867.09" y1="184.36" x2="867.09" y2="192.86"/>
          <line class="cls-2" x1="867.09" y1="195.65" x2="867.09" y2="204.15"/>
          <line class="cls-2" x1="867.09" y1="207.74" x2="867.09" y2="216.24"/>
          <line class="cls-2" x1="867.09" y1="220.34" x2="867.09" y2="228.84"/>
          <line class="cls-2" x1="867.09" y1="232.26" x2="867.09" y2="240.76"/>
          <line class="cls-2" x1="867.09" y1="243.92" x2="867.09" y2="252.42"/>
        </g>
        <g>
          <line class="cls-2" x1="202.21" y1="136.9" x2="202.21" y2="145.4"/>
          <line class="cls-2" x1="202.21" y1="148.11" x2="202.21" y2="156.61"/>
          <line class="cls-2" x1="202.21" y1="159.65" x2="202.21" y2="168.15"/>
          <line class="cls-2" x1="202.21" y1="170.94" x2="202.21" y2="179.44"/>
          <line class="cls-2" x1="202.21" y1="183.52" x2="202.21" y2="192.02"/>
          <line class="cls-2" x1="202.21" y1="194.73" x2="202.21" y2="203.23"/>
          <line class="cls-2" x1="202.21" y1="206.27" x2="202.21" y2="214.77"/>
          <line class="cls-2" x1="202.21" y1="217.56" x2="202.21" y2="226.06"/>
          <line class="cls-2" x1="202.21" y1="231.7" x2="202.21" y2="240.2"/>
          <line class="cls-2" x1="202.21" y1="243.73" x2="202.21" y2="252.23"/>
        </g>
        <g>
          <line class="cls-2" x1="391.85" y1="125.31" x2="391.85" y2="133.81"/>
          <line class="cls-2" x1="391.85" y1="136.52" x2="391.85" y2="145.02"/>
          <line class="cls-2" x1="391.85" y1="148.06" x2="391.85" y2="156.56"/>
          <line class="cls-2" x1="391.85" y1="159.35" x2="391.85" y2="167.85"/>
          <line class="cls-2" x1="391.85" y1="171.93" x2="391.85" y2="180.43"/>
          <line class="cls-2" x1="391.85" y1="183.14" x2="391.85" y2="191.64"/>
          <line class="cls-2" x1="391.85" y1="194.68" x2="391.85" y2="203.18"/>
          <line class="cls-2" x1="391.85" y1="205.97" x2="391.85" y2="214.47"/>
          <line class="cls-2" x1="391.85" y1="220.11" x2="391.85" y2="228.61"/>
          <line class="cls-2" x1="391.85" y1="232.14" x2="391.85" y2="240.64"/>
          <line class="cls-2" x1="391.85" y1="243.8" x2="391.85" y2="252.3"/>
        </g>
        <g>
          <line class="cls-2" x1="1057" y1="116.93" x2="1057" y2="125.43"/>
          <line class="cls-2" x1="1057" y1="128.14" x2="1057" y2="136.64"/>
          <line class="cls-2" x1="1057" y1="139.68" x2="1057" y2="148.18"/>
          <line class="cls-2" x1="1057" y1="150.97" x2="1057" y2="159.47"/>
          <line class="cls-2" x1="1057" y1="163.54" x2="1057" y2="172.04"/>
          <line class="cls-2" x1="1057" y1="174.76" x2="1057" y2="183.26"/>
          <line class="cls-2" x1="1057" y1="186.3" x2="1057" y2="194.8"/>
          <line class="cls-2" x1="1057" y1="197.59" x2="1057" y2="206.09"/>
          <line class="cls-2" x1="1057" y1="211.73" x2="1057" y2="220.23"/>
          <line class="cls-2" x1="1057" y1="223.76" x2="1057" y2="232.26"/>
          <line class="cls-2" x1="1057" y1="235.42" x2="1057" y2="243.92"/>
          <line class="cls-2" x1="1057" y1="246.69" x2="1057" y2="255.19"/>
        </g>
        <g>
          <line class="cls-3" x1="961.09" y1="128.14" x2="961.09" y2="135.95"/>
          <line class="cls-3" x1="961.09" y1="138.45" x2="961.09" y2="146.26"/>
          <line class="cls-3" x1="961.09" y1="149.05" x2="961.09" y2="156.86"/>
          <line class="cls-3" x1="961.09" y1="159.43" x2="961.09" y2="167.24"/>
          <line class="cls-3" x1="961.09" y1="170.98" x2="961.09" y2="178.79"/>
          <line class="cls-3" x1="961.09" y1="181.29" x2="961.09" y2="189.1"/>
          <line class="cls-3" x1="961.09" y1="191.89" x2="961.09" y2="199.7"/>
          <line class="cls-3" x1="961.09" y1="202.26" x2="961.09" y2="210.07"/>
          <line class="cls-3" x1="961.09" y1="215.25" x2="961.09" y2="223.06"/>
          <line class="cls-3" x1="961.09" y1="226.31" x2="961.09" y2="234.12"/>
          <line class="cls-3" x1="961.09" y1="237.02" x2="961.09" y2="244.83"/>
          <line class="cls-3" x1="961.09" y1="247.38" x2="961.09" y2="255.19"/>
        </g>
        <g>
          <g>
            <line class="cls-2" x1="676.84" y1="79.05" x2="676.84" y2="87.55"/>
            <line class="cls-2" x1="676.84" y1="90.27" x2="676.84" y2="98.77"/>
            <line class="cls-2" x1="676.84" y1="101.81" x2="676.84" y2="110.31"/>
            <line class="cls-2" x1="676.84" y1="113.1" x2="676.84" y2="121.6"/>
            <line class="cls-2" x1="676.84" y1="125.67" x2="676.84" y2="134.17"/>
            <line class="cls-2" x1="676.84" y1="136.89" x2="676.84" y2="145.39"/>
            <line class="cls-2" x1="676.84" y1="148.43" x2="676.84" y2="156.93"/>
            <line class="cls-2" x1="676.84" y1="159.72" x2="676.84" y2="168.22"/>
            <line class="cls-2" x1="676.84" y1="173.85" x2="676.84" y2="182.35"/>
            <line class="cls-2" x1="676.84" y1="185.88" x2="676.84" y2="194.38"/>
            <line class="cls-2" x1="676.84" y1="197.54" x2="676.84" y2="206.04"/>
            <line class="cls-2" x1="676.84" y1="208.81" x2="676.84" y2="217.31"/>
          </g>
          <g>
            <line class="cls-2" x1="677.26" y1="219.06" x2="677.26" y2="227.56"/>
            <line class="cls-2" x1="677.26" y1="230.28" x2="677.26" y2="238.78"/>
            <line class="cls-2" x1="677.26" y1="241.82" x2="677.26" y2="250.32"/>
          </g>
        </g>
        <g>
          <g>
            <line class="cls-2" x1="487.22" y1="54.25" x2="487.22" y2="62.75"/>
            <line class="cls-2" x1="487.22" y1="65.47" x2="487.22" y2="73.97"/>
            <line class="cls-2" x1="487.22" y1="77.01" x2="487.22" y2="85.51"/>
            <line class="cls-2" x1="487.22" y1="88.29" x2="487.22" y2="96.8"/>
            <line class="cls-2" x1="487.22" y1="100.87" x2="487.22" y2="109.37"/>
            <line class="cls-2" x1="487.22" y1="112.09" x2="487.22" y2="120.59"/>
            <line class="cls-2" x1="487.22" y1="123.63" x2="487.22" y2="132.13"/>
            <line class="cls-2" x1="487.22" y1="134.91" x2="487.22" y2="143.41"/>
            <line class="cls-2" x1="487.22" y1="149.05" x2="487.22" y2="157.55"/>
            <line class="cls-2" x1="487.22" y1="161.08" x2="487.22" y2="169.58"/>
            <line class="cls-2" x1="487.22" y1="172.74" x2="487.22" y2="181.24"/>
          </g>
          <g>
            <line class="cls-2" x1="487.22" y1="185.78" x2="487.22" y2="194.28"/>
            <line class="cls-2" x1="487.22" y1="197" x2="487.22" y2="205.5"/>
            <line class="cls-2" x1="487.22" y1="208.54" x2="487.22" y2="217.04"/>
            <line class="cls-2" x1="487.22" y1="219.83" x2="487.22" y2="228.33"/>
            <line class="cls-2" x1="487.22" y1="232.4" x2="487.22" y2="240.9"/>
            <line class="cls-2" x1="487.22" y1="243.62" x2="487.22" y2="252.12"/>
          </g>
        </g>
        <g>
          <g>
            <line class="cls-2" x1="581.48" y1="54.37" x2="581.48" y2="62.87"/>
            <line class="cls-2" x1="581.48" y1="65.58" x2="581.48" y2="74.08"/>
            <line class="cls-2" x1="581.48" y1="77.12" x2="581.48" y2="85.62"/>
            <line class="cls-2" x1="581.48" y1="88.41" x2="581.48" y2="96.91"/>
            <line class="cls-2" x1="581.48" y1="100.98" x2="581.48" y2="109.49"/>
            <line class="cls-2" x1="581.48" y1="112.2" x2="581.48" y2="120.7"/>
            <line class="cls-2" x1="581.48" y1="123.74" x2="581.48" y2="132.24"/>
            <line class="cls-2" x1="581.48" y1="135.03" x2="581.48" y2="143.53"/>
            <line class="cls-2" x1="581.48" y1="149.17" x2="581.48" y2="157.67"/>
            <line class="cls-2" x1="581.48" y1="161.2" x2="581.48" y2="169.7"/>
            <line class="cls-2" x1="581.48" y1="172.86" x2="581.48" y2="181.36"/>
          </g>
          <g>
            <line class="cls-2" x1="581.48" y1="185.9" x2="581.48" y2="194.4"/>
            <line class="cls-2" x1="581.48" y1="197.12" x2="581.48" y2="205.62"/>
            <line class="cls-2" x1="581.48" y1="208.66" x2="581.48" y2="217.16"/>
            <line class="cls-2" x1="581.48" y1="219.95" x2="581.48" y2="228.45"/>
            <line class="cls-2" x1="581.48" y1="232.52" x2="581.48" y2="241.02"/>
            <line class="cls-2" x1="581.48" y1="243.74" x2="581.48" y2="252.24"/>
          </g>
        </g>
      </g>
    </g>
  </g>
</svg>